# xmcd
#
# Track frame offsets: 
#        150
#        24997
#        60935
#        84670
#        101012
#        123160
#        144910
#        164917
#        200200
#
# Disc length: 3146 seconds
#
# Revision: 2
# Processed by: cddbd v1.5.2PL0 Copyright (c) Steve Scherf et al.
# Submitted via: ExactAudioCopy v0.95b4
#
DISCID=770c4809
DTITLE=Walter Horton (feat.Ronnie Earl) - Live at the Knickerbocker
DYEAR=2001
DGENRE=Blues
TTITLE0=I Cry For You
TTITLE1=Lord Knows I Tried
TTITLE2=Country Girl
TTITLE3=Walter's Shuffle
TTITLE4=Little Boy Blue
TTITLE5=It's Not Easy
TTITLE6=Two Old Maids
TTITLE7=What's On Your Worried Mind
TTITLE8=Walter's Swing
EXTD=
EXTT0=
EXTT1=
EXTT2=
EXTT3=
EXTT4=
EXTT5=
EXTT6=
EXTT7=
EXTT8=
PLAYORDER=
